<?xml version="1.0" encoding="UTF-8" standalone="no"?><!DOCTYPE svg PUBLIC "-//W3C//DTD SVG 1.1//EN" "http://www.w3.org/Graphics/SVG/1.1/DTD/svg11.dtd"><svg width="100%" height="100%" viewBox="0 0 564 364" version="1.1" xmlns="http://www.w3.org/2000/svg" xmlns:xlink="http://www.w3.org/1999/xlink" xml:space="preserve" xmlns:serif="http://www.serif.com/" style="fill-rule:evenodd;clip-rule:evenodd;stroke-linecap:square;"><path d="M0.5,189.5l563,0" style="fill:none;stroke:#c8c8c8;stroke-opacity:0.5;stroke-width:1px;"/><g id="Layer1"></g><path d="M18.8,108.4l2.9,0l0,-2.9l-2.9,0l0,2.9Zm1.1,13.4l0.7,0l0,-0.7l-0.7,0l0,0.7Zm-1.3,1.3l3.3,0l0,-3.3l-3.3,0l0,3.3Zm1.3,13.2l0.7,0l0,-0.7l-0.7,0l0,0.7Zm-1.3,1.3l3.3,0l0,-3.3l-3.3,0l0,3.3Zm1.1,13.4l1,0l0,-1l-1,0l0,1Zm-1.3,1.3l3.6,0l0,-3.6l-3.6,0l0,3.6Zm1.3,13.3l1.1,0l0,-1.2l-1.1,0l0,1.2Zm-1.3,1.3l3.6,0l0,-3.9l-3.7,0l0,3.8l0.1,0.1Zm1.6,12.9l0.5,0l0,-0.6l-0.5,0l0,0.6Zm-1.3,1.3l3,0l0,-3.2l-3,0l0,3.2Zm102.7,-160.5l1.5,0l0,-1.6l-1.5,0l0,1.6Zm14.6,-0.1l1.3,0l0,-1.4l-1.3,0l0,1.4Zm14.6,-0.1l1.2,0l0,-1.2l-1.2,0l0,1.2Zm14.6,-0.1l1,0l0,-1l-1,0l0,1Zm14.4,0.2l1.3,0l0,-1.4l-1.3,0l0,1.4Zm14.5,-0.1l1.3,0l0,-1.3l-1.3,0l0,1.3Zm-116.2,14.6l1.4,0l0,-1.4l-1.4,0l0,1.4Zm14,0.5l2.4,0l0,-2.4l-2.4,0l0,2.4Zm14.4,0.2l2.7,0l0,-2.8l-2.7,0l0,2.8Zm14.5,0l2.7,0l0,-2.7l-2.7,0l0,2.7Zm14.6,-0.1l2.6,0l0,-2.6l-2.6,0l0,2.6Zm14.5,0l2.6,0l0,-2.6l-2.6,0l0,2.6Zm15.6,-1.1l0.4,0l0,-0.4l-0.4,0l0,0.4Zm-1,1l2.5,0l0,-2.5l-2.6,0l0,2.6l0.1,-0.1Zm15.5,-1l0.4,0l0,-0.4l-0.4,0l0,0.4Zm-1,1l2.5,0l0,-2.5l-2.5,0l0,2.6l0,-0.1Zm29.5,-0.4l1.5,0l0,-1.6l-1.5,0l0,1.6Zm14.6,-0.1l1.4,0l0,-1.4l-1.4,0l0,1.4Zm14.6,-0.1l1.2,0l0,-1.2l-1.2,0l0,1.2Zm14.7,-0.2l0.9,0l0,-0.8l-0.9,0l0,0.8Zm14.6,-0.1l0.6,0l0,-0.6l-0.6,0l0,0.6Zm-232.5,14.7l1,0l0,-1l-1,0l0,1Zm14.4,0.2l1.3,0l0,-1.3l-1.3,0l0,1.3Zm14.2,0.3l1.9,0l0,-1.9l-1.9,0l0,1.9Zm14.4,0.1l2.2,0l0,-2.2l-2.2,0l0,2.2Zm14.3,0.2l2.6,0l0,-2.6l-2.6,0l0,2.6Zm14.4,0.2l2.9,0l0,-2.9l-2.9,0l0,2.9Zm15.8,-1.3l0.4,0l0,-0.4l-0.5,0l0,0.5l0.1,-0.1Zm-1.4,1.4l3,0l0,-3.1l-3,0l0,3.1Zm15.2,-0.7l1.8,0l0,-1.7l-1.8,0l0,1.8l0,-0.1Zm-1.3,1.3l4.4,0l0,-4.4l-4.4,0l0,4.4Zm16,-1.5l1.3,0l0,-1.3l-1.3,0l0,1.3Zm-1.2,1.2l3.8,0l0,-3.7l-3.8,0l0,3.8l0,-0.1Zm15.9,-1.4l1,0l0,-1l-1,0l0,1Zm-1.2,1.2l3.4,0l0,-3.3l-3.4,0l0,3.3Zm15.9,-1.4l0.6,0l0,-0.6l-0.6,0l0,0.6Zm-1.2,1.2l3,0l0,-3l-3,0l0,3Zm15.8,-1.3l0.5,0l0,-0.4l-0.5,0l0,0.5l0,-0.1Zm-1.2,1.3l2.9,0l0,-3l-2.9,0l0,3Zm15.7,-1.2l0.6,0l0,-0.6l-0.6,0l0,0.6Zm-1.2,1.2l3,0l0,-3l-3,0l0,3Zm15.7,-1.2l0.6,0l0,-0.6l-0.6,0l0,0.6Zm-1.3,1.3l3.1,0l0,-3.1l-3,0l0,3l-0.1,0.1Zm15.8,-1.3l0.6,0l0,-0.6l-0.6,0l0,0.6Zm-1,1l2.7,0l0,-2.6l-2.8,0l0,2.7l0.1,-0.1Zm29.9,-0.8l0.9,0l0,-0.9l-0.9,0l0,0.9Zm14.6,-0.1l0.7,0l0,-0.7l-0.7,0l0,0.7Zm-247.2,14.9l1.5,0l0,-1.5l-1.5,0l0,1.5Zm14.4,0.1l1.8,0l0,-1.7l-1.8,0l0,1.7Zm15.1,-0.6l0.6,0l0,-0.5l-0.6,0l0,0.5Zm-1.2,1.2l3,0l0,-2.9l-3,0l0,2.9Zm29.8,-0.8l1.4,0l0,-1.3l-1.4,0l0,1.3Zm-1.3,1.3l4,0l0,-4l-4,0l0,4Zm15.8,-1.2l1.5,0l0,-1.5l-1.5,0l0,1.5Zm-1.3,1.3l4.1,0l0,-4.1l-4.1,0l0,4.1Zm15.7,-1.2l1.7,0l0,-1.7l-1.7,0l0,1.7Zm-1.3,1.3l4.3,0l0,-4.3l-4.3,0l0,4.3Zm15.8,-1.3l1.8,0l0,-1.7l-1.8,0l0,1.7Zm-1.3,1.3l4.4,0l0,-4.3l-4.4,0l0,4.3Zm15.7,-1.1l2,0l0,-2l-2,0l0,2Zm-1.3,1.3l4.6,0l0,-4.7l-4.5,0l0,4.7l-0.1,0Zm15.7,-1.3l2.2,0l0,-2.1l-2.2,0l0,2.1Zm-1.3,1.3l4.8,0l0,-4.7l-4.8,0l0,4.7Zm15.7,-1.2l2.4,0l0,-2.3l-2.3,0l0,2.3l-0.1,0Zm-1.2,1.3l5,0l0,-5l-5,0l0,5Zm16.1,-1.6l1.7,0l0,-1.7l-1.6,0l0,1.7l-0.1,0Zm-1.3,1.3l4.3,0l0,-4.3l-4.3,0l0,4.3Zm15.9,-1.4l1.5,0l0,-1.5l-1.5,0l0,1.5Zm-1.3,1.3l4.1,0l0,-4.1l-4.1,0l0,4.1Zm15.2,-0.7l2.8,0l0,-2.7l-2.8,0l0,2.7Zm-1.4,1.3l5.5,0l0,-5.3l-5.5,0l0,5.3Zm15.9,-1.2l2.8,0l0,-2.9l-2.7,0l0,2.9l-0.1,0Zm-1.3,1.3l5.4,0l0,-5.5l-5.4,0l0,5.5Zm16.9,-2.4l0.7,0l0,-0.7l-0.7,0l0,0.7Zm-1.1,1l2.9,0l0,-2.7l-2.9,0l0,2.9l0,-0.2Zm15.6,-1l0.7,0l0,-0.7l-0.7,0l0,0.7Zm-0.9,0.9l2.5,0l0,-2.6l-2.6,0l0,2.5l0.1,0.1Zm30.1,-1.1l0.4,0l0,-0.3l-0.4,0l0,0.3Zm-0.5,0.6l1.4,0l0,-1.5l-1.4,0l0,1.5Zm15.1,-0.6l0.3,0l0,-0.3l-0.3,0l0,0.3Zm-0.4,0.4l1,0l0,-1l-1,0l0,1Zm-276.6,15.2l2.5,0l0,-2.5l-2.5,0l0,2.5Zm15.5,-1.1l0.5,0l0,-0.3l-0.5,0l0,0.4l0,-0.1Zm-1.3,1.3l3,0l0,-2.9l-3,0l0,2.9Zm58,0.1l3.2,0l0,-3.1l-3.1,0l0,3.1l-0.1,0Zm-1.2,1.3l5.7,0l0,-5.7l-5.7,0l0,5.7Zm73.2,-0.7l4.4,0l0,-4.3l-4.4,0l0,4.4l0,-0.1Zm-1.3,1.4l7,0l0,-7l-7,0l0,7Zm15.8,-1.4l4.5,0l0,-4.4l-4.5,0l0,4.5l0,-0.1Zm-1.3,1.4l7,0l0,-7l-7,0l0,7Zm15.8,-1.3l4.5,0l0,-4.5l-4.5,0l0,4.5Zm-1.3,1.3l7.1,0l0,-7l-7,0l0,7l-0.1,0Zm15.8,-1.2l4.6,0l0,-4.7l-4.6,0l0,4.7Zm-1.4,1.3l7.3,0l0,-7.3l-7.3,0l0,7.3Zm16.8,-2.2l2.9,0l0,-2.9l-3,0l0,3l0.1,-0.1Zm-1.4,1.3l5.6,0l0,-5.5l-5.6,0l0,5.5Zm15.9,-1.3l2.9,0l0,-2.9l-3,0l0,3l0.1,-0.1Zm-1.3,1.3l5.4,0l0,-5.4l-5.4,0l0,5.4Zm15.9,-1.3l2.7,0l0,-2.8l-2.7,0l0,2.8Zm-1.2,1.1l5.1,0l0,-5l-5.1,0l0,5Zm15.9,-1.4l2.4,0l0,-2.3l-2.4,0l0,2.4l0,-0.1Zm-1,1l4.4,0l0,-4.3l-4.4,0l0,4.4l0,-0.1Zm15.7,-1.1l2,0l0,-2l-2,0l0,2Zm-0.9,0.8l3.7,0l0,-3.7l-3.7,0l0,3.7Zm15.9,-1.4l1,0l0,-1l-1,0l0,1Zm-0.6,0.7l2.3,0l0,-2.3l-2.3,0l0,2.3Zm15.2,-0.8l0.8,0l0,-0.7l-0.7,0l0,0.7l-0.1,0Zm-0.5,0.5l1.8,0l0,-1.7l-1.8,0l0,1.7Zm14.9,-0.3l1,0l0,-1l-1,0l0,1Zm-0.4,0.4l2,0l0,-2l-2,0l0,2Zm15.1,-0.6l0.7,0l0,-0.7l-0.7,0l0,0.7Zm-0.4,0.4l1.5,0l0,-1.6l-1.5,0l0,1.6Zm73.1,-0.6l0.5,0l0,-0.3l-0.5,0l0,0.4l0,-0.1Zm-0.4,0.6l1.4,0l0,-1.4l-1.4,0l0,1.4Zm44,-0.6l0.4,0l0,-0.3l-0.4,0l0,0.3Zm-1,1l2.4,0l0,-2.3l-2.4,0l0,2.3Zm14.4,0.2l2.7,0l0,-2.7l-2.7,0l0,2.7Zm15.6,-1.2l0.5,0l0,-0.4l-0.5,0l0,0.5l0,-0.1Zm-1.3,1.4l3.1,0l0,-3l-3,0l0,3l-0.1,0Zm14.7,-0.1l2.8,0l0,-2.9l-2.8,0l0,2.9Zm14.6,-0.2l2.6,0l0,-2.5l-2.6,0l0,2.5Zm-478.4,13.9l1.2,0l0,-1.2l-1.2,0l0,1.2Zm-1.4,1.3l3.9,0l0,-3.8l-3.9,0l0,3.8Zm15.6,-1l1.8,0l0,-1.8l-1.8,0l0,1.8Zm-1.3,1.3l4.4,0l0,-4.4l-4.4,0l0,4.4Zm15.5,-1.1l2.4,0l0,-2.3l-2.4,0l0,2.3Zm-1.3,1.4l5,0l0,-5l-5,0l0,5Zm15.5,-1l3,0l0,-3l-3,0l0,3Zm-1.3,1.3l5.6,0l0,-5.6l-5.6,0l0,5.6Zm58.7,-0.7l4.3,0l0,-4.2l-4.2,0l0,4.2l-0.1,0Zm-1.2,1.3l6.8,0l0,-6.8l-6.8,0l0,6.8Zm15.2,-0.7l5.4,0l0,-5.4l-5.4,0l0,5.4Zm-1.3,1.3l8,0l0,-8l-8,0l0,8Zm16.3,-1.7l4.5,0l0,-4.7l-4.5,0l0,4.7Zm-1.4,1.3l7.2,0l0,-7.2l-7.2,0l0,7.2Zm15.2,-0.7l5.9,0l0,-5.8l-5.9,0l0,5.8Zm-1.3,1.3l8.5,0l0,-8.5l-8.5,0l0,8.5Zm60.1,-2l4.4,0l0,-4.4l-4.4,0l0,4.4Zm-1.3,1.3l7,0l0,-7l-7,0l0,7Zm15.5,-0.9l5.1,0l0,-5.2l-5.1,0l0,5.2Zm-1.3,1.3l7.7,0l0,-7.8l-7.7,0l0,7.8Zm15.9,-1.4l5,0l0,-5l-5,0l0,5Zm-1.2,1.2l7.4,0l0,-7.4l-7.4,0l0,7.4Zm31.2,-2.2l3,0l0,-3l-3,0l0,3Zm-1,1l5,0l0,-5l-5,0l0,5Zm45,-1.4l2.2,0l0,-2.2l-2.2,0l0,2.2Zm-0.7,0.6l3.5,0l0,-3.5l-3.5,0l0,3.5Zm15.1,-0.5l2.4,0l0,-2.4l-2.4,0l0,2.4Zm-0.6,0.6l3.5,0l0,-3.6l-3.5,0l0,3.6Zm15.7,-1.2l1.3,0l0,-1.3l-1.3,0l0,1.3Zm-0.6,0.6l2.4,0l0,-2.4l-2.4,0l0,2.4Zm15.1,-0.6l1.3,0l0,-1.2l-1.3,0l0,1.2Zm-0.6,0.6l2.5,0l0,-2.4l-2.5,0l0,2.4Zm15.1,-0.6l1.3,0l0,-1.3l-1.2,0l0,1.4l-0.1,-0.1Zm-0.7,0.7l2.7,0l0,-2.7l-2.7,0l0,2.7Zm15.2,-0.7l1.3,0l0,-1.2l-1.3,0l0,1.2Zm-0.7,0.8l2.8,0l0,-2.8l-2.8,0l0,2.8Zm15.2,-0.8l1.4,0l0,-1.3l-1.4,0l0,1.4l0,-0.1Zm-1,1l3.3,0l0,-3.2l-3.2,0l0,3.2l-0.1,0Zm15.5,-0.9l1.4,0l0,-1.4l-1.4,0l0,1.4Zm-1.1,1l3.6,0l0,-3.5l-3.6,0l0,3.6l0,-0.1Zm15.7,-1.1l1.2,0l0,-1.2l-1.2,0l0,1.2Zm-1.2,1.3l3.7,0l0,-3.8l-3.7,0l0,3.8Zm15.9,-1.4l1,0l0,-1l-1,0l0,1Zm-1.4,1.3l3.6,0l0,-3.6l-3.6,0l0,3.6Zm15.7,-1.2l1.3,0l0,-1.3l-1.3,0l0,1.4l0,-0.1Zm-1.3,1.4l4,0l0,-4l-4,0l0,4Zm15.1,-0.6l2.8,0l0,-2.8l-2.8,0l0,2.8Zm15.6,-1.1l0.6,0l0,-0.6l-0.6,0l0,0.6Zm-1.4,1.3l3.2,0l0,-3.2l-3.2,0l0,3.2Zm-478.7,14.1l2.5,0l0,-2.4l-2.5,0l0,2.4Zm-1.3,1.3l5,0l0,-5l-5,0l0,5Zm15.6,-1l3,0l0,-3l-3,0l0,3Zm-1.3,1.3l5.5,0l0,-5.7l-5.5,0l0,5.7Zm15.5,-1l3.6,0l0,-3.6l-3.6,0l0,3.6Zm-1.3,1.3l6.2,0l0,-6.2l-6.2,0l0,6.2Zm15.5,-1l4.2,0l0,-4.2l-4.2,0l0,4.2Zm-1.3,1.3l6.8,0l0,-6.8l-6.8,0l0,6.8Zm15.7,-1.1l4.5,0l0,-4.5l-4.5,0l0,4.5Zm-1.3,1.3l7,0l0,-7.2l-7,0l0,7.2Zm15.6,-1.2l4.9,0l0,-4.8l-4.9,0l0,4.8Zm-1.3,1.3l7.5,0l0,-7.4l-7.5,0l0,7.4Zm15.6,-1.1l5.3,0l0,-5.2l-5.3,0l0,5.2Zm-1.2,1.3l7.8,0l0,-7.8l-7.8,0l0,7.8Zm15.7,-1.2l5.4,0l0,-5.4l-5.4,0l0,5.4Zm-1.3,1.4l8,0l0,-8.1l-8,0l0,8.1Zm15.7,-1.2l5.7,0l0,-5.8l-5.7,0l0,5.8Zm-1.3,1.3l8.3,0l0,-8.4l-8.3,0l0,8.4Zm30.2,-1.3l5.9,0l0,-5.8l-5.9,0l0,5.8Zm-1.3,1.4l8.5,0l0,-8.5l-8.5,0l0,8.5Zm59.2,-1.2l6.2,0l0,-6.2l-6.2,0l0,6.2Zm-1.3,1.3l8.8,0l0,-8.8l-8.8,0l0,8.8Zm15.9,-1.3l6.1,0l0,-6.2l-6.1,0l0,6.2Zm-1.3,1.3l8.7,0l0,-8.8l-8.7,0l0,8.8Zm15.7,-1.3l6.4,0l0,-6.3l-6.4,0l0,6.4l0,-0.1Zm-1.3,1.4l9,0l0,-9l-9,0l0,9Zm30,-1l7,0l0,-7l-7,0l0,7Zm-1.2,1.2l9.4,0l0,-9.4l-9.4,0l0,9.4Zm30.8,-1.6l6,0l0,-6l-6,0l0,6Zm-1,1l8,0l0,-8.1l-8,0l0,8.1Zm15.7,-1.3l5.5,0l0,-5.7l-5.5,0l0,5.7Zm-1,1l7.5,0l0,-7.5l-7.5,0l0,7.5Zm15.7,-1.2l5.1,0l0,-5.1l-5,0l0,5l-0.1,0.1Zm-0.9,0.9l7,0l0,-7l-7,0l0,7Zm16.3,-1.7l3.4,0l0,-3.5l-3.4,0l0,3.5Zm-1,0.9l5.4,0l0,-5.4l-5.4,0l0,5.4Zm29.9,-0.9l3.7,0l0,-3.6l-3.7,0l0,3.6Zm-1,1l5.7,0l0,-5.6l-5.7,0l0,5.6Zm15.7,-1.1l3.4,0l0,-3.4l-3.4,0l0,3.4Zm-1.2,1.2l5.7,0l0,-5.8l-5.7,0l0,5.8Zm45.2,-1.7l2.4,0l0,-2.4l-2.4,0l0,2.4Zm-1.3,1.3l5,0l0,-5l-5,0l0,5Zm45.2,-1.6l1.8,0l0,-1.8l-1.8,0l0,1.8Zm-1.3,1.2l4.4,0l0,-4.4l-4.4,0l0,4.4Zm16,-1.4l1.4,0l0,-1.3l-1.4,0l0,1.3Zm-1.3,1.3l4,0l0,-4l-4,0l0,4Zm15.1,-0.5l2.9,0l0,-2.9l-2.9,0l0,2.9Zm-508.1,14.4l2.7,0l0,-2.7l-2.7,0l0,2.7Zm-1.3,1.3l5.3,0l0,-5.3l-5.3,0l0,5.3Zm15.6,-1.3l3,0l0,-2.8l-3,0l0,2.8Zm-1.2,1.4l5.5,0l0,-5.5l-5.5,0l0,5.5Zm15.4,-0.9l3.8,0l0,-3.8l-3.8,0l0,3.8Zm-1.3,1.3l6.4,0l0,-6.4l-6.4,0l0,6.4Zm15.4,-0.8l4.6,0l0,-4.8l-4.6,0l0,4.8Zm-1.4,1.3l7.3,0l0,-7.3l-7.2,0l0,7.3l-0.1,0Zm15.5,-1l5.4,0l0,-5.4l-5.4,0l0,5.4Zm-1.3,1.3l8,0l0,-8l-8,0l0,8Zm30.1,-1l6,0l0,-6l-6,0l0,6Zm-1.3,1.3l8.5,0l0,-8.6l-8.4,0l0,8.6l-0.1,0Zm15.5,-1l6.5,0l0,-6.5l-6.5,0l0,6.5Zm-1.3,1.3l9.1,0l0,-9.1l-9,0l0,9l-0.1,0.1Zm30.1,-1.1l7,0l0,-7l-7,0l0,7Zm-1.3,1.3l9.6,0l0,-9.6l-9.6,0l0,9.6Zm15.6,-1l7.5,0l0,-7.5l-7.5,0l0,7.5Zm-1.3,1.3l10.1,0l0,-10.1l-10.1,0l0,10.1Zm15.6,-1.2l7.9,0l0,-7.8l-7.8,0l0,7.8l-0.1,0Zm-1.3,1.3l10.5,0l0,-10.4l-10.5,0l0,10.4Zm15.8,-1.2l8,0l0,-8l-8,0l0,8Zm-1.4,1.3l10.7,0l0,-10.6l-10.7,0l0,10.6Zm15.8,-1.1l8.2,0l0,-8.3l-8.2,0l0,8.3Zm-1.4,1.3l11,0l0,-11l-11,0l0,11Zm15.7,-1.3l8.5,0l0,-8.4l-8.4,0l0,8.4l-0.1,0Zm-1.2,1.3l11,0l0,-11l-11,0l0,11Zm16.2,-1.6l7.7,0l0,-7.7l-7.7,0l0,7.7Zm-1.3,1.3l10.3,0l0,-10.3l-10.3,0l0,10.3Zm30.3,-1.3l7.8,0l0,-7.8l-7.8,0l0,7.8Zm-1.4,1.3l10.4,0l0,-10.4l-10.4,0l0,10.4Zm15.3,-0.6l9,0l0,-9.1l-9,0l0,9.1Zm-1.3,1.3l11.6,0l0,-11.7l-11.6,0l0,11.7Zm15.7,-1.3l9.2,0l0,-9.2l-9.2,0l0,9.2Zm-1.3,1.3l11.8,0l0,-11.8l-11.8,0l0,11.8Zm30.5,-1.5l8.9,0l0,-8.8l-8.9,0l0,8.8Zm-1.2,1.3l11.3,0l0,-11.3l-11.3,0l0,11.3Zm30.7,-1.7l8,0l0,-8l-8,0l0,8Zm-1.2,1.2l10.4,0l0,-10.4l-10.4,0l0,10.4Zm16,-1.5l7.4,0l0,-7.3l-7.4,0l0,7.3Zm-1.2,1.2l9.8,0l0,-9.8l-9.8,0l0,9.8Zm16.1,-1.6l6.6,0l0,-6.6l-6.6,0l0,6.6Zm-1.2,1.3l9,0l0,-9.1l-9,0l0,9.1Zm15.8,-1.4l6.5,0l0,-6.4l-6.5,0l0,6.4Zm-1.2,1.3l9,0l0,-9l-9,0l0,9Zm16,-1.5l6,0l0,-6l-6,0l0,6Zm-1.3,1.3l8.5,0l0,-8.5l-8.5,0l0,8.5Zm16.2,-1.7l5.2,0l0,-5.2l-5.2,0l0,5.2Zm-1.3,1.4l7.8,0l0,-7.9l-7.8,0l0,7.9Zm16,-1.6l4.8,0l0,-4.8l-4.8,0l0,4.8Zm-1.3,1.4l7.4,0l0,-7.5l-7.4,0l0,7.5Zm31.1,-2.1l3.3,0l0,-3.4l-3.3,0l0,3.4Zm-1.3,1.3l6,0l0,-6l-6,0l0,6Zm15.9,-1.4l3.1,0l0,-3.1l-3.1,0l0,3.1Zm-1.3,1.3l5.7,0l0,-5.7l-5.7,0l0,5.7Zm16.2,-1.7l2.3,0l0,-2.3l-2.3,0l0,2.3Zm-1.3,1.3l5,0l0,-5l-5,0l0,5Zm16,-1.5l2,0l0,-2l-2,0l0,2Zm-1.3,1.3l4.6,0l0,-4.5l-4.6,0l0,4.5Zm16.5,-1.9l0.7,0l0,-0.7l-0.7,0l0,0.7Zm-1.3,1.3l3.3,0l0,-3.3l-3.3,0l0,3.3Zm-508.2,14.5l3.3,0l0,-3.3l-3.3,0l0,3.3Zm-1.4,1.3l6,0l0,-6l-6,0l0,6Zm43.9,-0.2l5.4,0l0,-5.5l-5.4,0l0,5.5Zm-1.3,1.3l8,0l0,-8l-8,0l0,8Zm15.4,-1l6.2,0l0,-6l-6.2,0l0,6.1l0,-0.1Zm-1.3,1.3l8.8,0l0,-8.7l-8.8,0l0,8.7Zm15.9,-1.3l6,0l0,-6l-6,0l0,6Zm-1.3,1.2l8.6,0l0,-8.6l-8.6,0l0,8.6Zm15.5,-0.9l6.7,0l0,-6.7l-6.7,0l0,6.7Zm-1.3,1.3l9.3,0l0,-9.3l-9.3,0l0,9.3Zm30.1,-1.1l7.2,0l0,-7.1l-7.2,0l0,7.1Zm-1.3,1.3l9.8,0l0,-9.7l-9.8,0l0,9.7Zm15.5,-0.9l7.8,0l0,-7.9l-7.8,0l0,7.9Zm-1.3,1.3l10.4,0l0,-10.5l-10.4,0l0,10.5Zm15.5,-1.1l8.4,0l0,-8.3l-8.4,0l0,8.3Zm-1.3,1.3l11,0l0,-11l-11,0l0,11Zm16,-1.4l8,0l0,-8l-8,0l0,8Zm-1.3,1.3l10.7,0l0,-10.7l-10.7,0l0,10.7Zm15.7,-1.3l8.3,0l0,-8.2l-8.3,0l0,8.3l0,-0.1Zm-1.3,1.4l11,0l0,-10.9l-11,0l0,10.9Zm15.7,-1.2l8.5,0l0,-8.5l-8.5,0l0,8.5Zm-1.3,1.3l11.1,0l0,-11.1l-11,0l0,11.1l-0.1,0Zm15.4,-0.9l9.4,0l0,-9.3l-9.4,0l0,9.3Zm-1.3,1.4l12,0l0,-12l-12,0l0,12Zm16.1,-1.7l8.8,0l0,-8.7l-8.8,0l0,8.7Zm-1.3,1.3l11.4,0l0,-11.3l-11.4,0l0,11.3Zm15.8,-1.2l8.9,0l0,-8.9l-8.9,0l0,8.9Zm-1.3,1.3l11.5,0l0,-11.5l-11.5,0l0,11.5Zm15.7,-1.2l9,0l0,-9l-9,0l0,9Zm-1.3,1.3l11.7,0l0,-11.8l-11.7,0l0,11.8Zm29.9,-0.8l10,0l0,-10l-10,0l0,10Zm-1.3,1.3l12.6,0l0,-12.7l-12.6,0l0,12.7Zm16,-1.6l9.6,0l0,-9.5l-9.6,0l0,9.5Zm-1.3,1.3l12.2,0l0,-12l-12.2,0l0,12Zm30.3,-1.2l9.7,0l0,-9.7l-9.7,0l0,9.7Zm-1.3,1.3l12.3,0l0,-12.3l-12.3,0l0,12.3Zm16,-1.5l9.4,0l0,-9.3l-9.4,0l0,9.3Zm-1.3,1.4l12,0l0,-12l-12,0l0,12Zm16,-1.7l8.9,0l0,-8.7l-8.9,0l0,8.7Zm-1.2,1.3l11.4,0l0,-11.3l-11.4,0l0,11.3Zm16.2,-1.6l8,0l0,-8l-8,0l0,8Zm-1.3,1.3l10.6,0l0,-10.7l-10.6,0l0,10.7Zm15.8,-1.4l8,0l0,-8l-8,0l0,8Zm-1.2,1.3l10.5,0l0,-10.5l-10.5,0l0,10.5Zm45.9,-2.3l5.8,0l0,-5.9l-5.8,0l0,5.9Zm-1.3,1.3l8.4,0l0,-8.5l-8.3,0l0,8.5l-0.1,0Zm16.1,-1.7l5.2,0l0,-5.1l-5.2,0l0,5.1Zm-1.2,1.3l7.7,0l0,-7.7l-7.7,0l0,7.7Zm16.2,-1.8l4.3,0l0,-4.2l-4.3,0l0,4.3l0,-0.1Zm-1.3,1.4l6.9,0l0,-6.9l-6.9,0l0,6.9Zm16.2,-1.7l3.5,0l0,-3.5l-3.4,0l0,3.5l-0.1,0Zm-1.3,1.3l6.1,0l0,-6l-6.1,0l0,6.1l0,-0.1Zm31.2,-2.2l1.8,0l0,-1.7l-1.8,0l0,1.7Zm-1.3,1.3l4.4,0l0,-4.3l-4.4,0l0,4.3Zm16.4,-1.8l0.7,0l0,-0.7l-0.7,0l0,0.7Zm-1.3,1.3l3.3,0l0,-3.3l-3.3,0l0,3.3Zm-508.2,14.5l3.3,0l0,-3.3l-3.3,0l0,3.3Zm-1.3,1.3l5.9,0l0,-5.9l-6,0l0,6l0.1,-0.1Zm43.6,-0.1l5.8,0l0,-5.7l-5.8,0l0,5.7Zm-1.3,1.3l8.4,0l0,-8.3l-8.4,0l0,8.3Zm15.5,-0.9l6.5,0l0,-6.5l-6.5,0l0,6.5Zm-1.3,1.3l9,0l0,-9l-9,0l0,9Zm15.7,-1.2l6.7,0l0,-6.7l-6.7,0l0,6.7Zm-1.3,1.3l9.3,0l0,-9.3l-9.3,0l0,9.3Zm15.6,-1.1l7,0l0,-7l-7,0l0,7Zm-1.3,1.3l9.7,0l0,-9.7l-9.7,0l0,9.7Zm15.7,-1.1l7.4,0l0,-7.5l-7.4,0l0,7.5Zm-1.4,1.3l10.1,0l0,-10.1l-10.1,0l0,10.1Zm15.7,-1.2l7.7,0l0,-7.7l-7.7,0l0,7.7Zm-1.3,1.3l10.3,0l0,-10.3l-10.3,0l0,10.3Zm15.6,-1l8.2,0l0,-8.2l-8.2,0l0,8.2Zm-1.3,1.3l10.8,0l0,-10.9l-10.8,0l0,10.9Zm15.7,-1.2l8.4,0l0,-8.4l-8.4,0l0,8.4Zm-1.3,1.3l11,0l0,-11l-11,0l0,11Zm15.7,-1.2l8.7,0l0,-8.8l-8.7,0l0,8.8Zm-1.4,1.3l11.4,0l0,-11.3l-11.4,0l0,11.3Zm15.8,-1.1l9,0l0,-9l-9,0l0,9Zm-1.3,1.2l11.5,0l0,-11.5l-11.5,0l0,11.5Zm15.7,-1.2l9.2,0l0,-9l-9.2,0l0,9.1l0,-0.1Zm-1.3,1.4l11.8,0l0,-11.8l-11.8,0l0,11.8Zm44.6,-1.1l9.7,0l0,-9.7l-9.7,0l0,9.7Zm-1.3,1.3l12.3,0l0,-12.3l-12.3,0l0,12.3Zm15.8,-1.2l9.8,0l0,-9.8l-9.8,0l0,9.8Zm-1.4,1.3l12.4,0l0,-12.4l-12.4,0l0,12.4Zm15.8,-1.3l10,0l0,-9.9l-10,0l0,10l0,-0.1Zm-1.4,1.3l12.7,0l0,-12.5l-12.7,0l0,12.5Zm15.9,-1.2l10,0l0,-10l-10,0l0,10Zm-1.3,1.3l12.6,0l0,-12.8l-12.6,0l0,12.8Zm15.8,-1.3l10,0l0,-10l-10,0l0,10Zm-1.3,1.3l12.6,0l0,-12.8l-12.6,0l0,12.8Zm15.9,-1.4l10,0l0,-10l-10,0l0,10Zm-1.3,1.4l12.5,0l0,-12.6l-12.5,0l0,12.6Zm15.9,-1.4l9.8,0l0,-9.8l-9.8,0l0,9.8Zm-1.3,1.3l12.4,0l0,-12.4l-12.4,0l0,12.4Zm30.7,-1.7l9,0l0,-9l-9,0l0,9Zm-1.3,1.3l11.6,0l0,-11.6l-11.6,0l0,11.6Zm16,-1.5l8.6,0l0,-8.6l-8.6,0l0,8.6Zm-1.3,1.3l11.2,0l0,-11.2l-11.2,0l0,11.2Zm16.1,-1.6l8.1,0l0,-8.1l-8.1,0l0,8.1Zm-1.3,1.3l10.7,0l0,-10.7l-10.7,0l0,10.7Zm16.1,-1.6l7.5,0l0,-7.5l-7.5,0l0,7.5Zm-1.3,1.3l10.1,0l0,-10.1l-10.1,0l0,10.1Zm31,-2l6.2,0l0,-6.1l-6.2,0l0,6.1Zm-1.3,1.3l8.8,0l0,-8.7l-8.8,0l0,8.8l0,-0.1Zm16.3,-1.7l5.3,0l0,-5.3l-5.3,0l0,5.3Zm-1.3,1.3l7.9,0l0,-7.9l-8,0l0,8l0.1,-0.1Zm16.2,-1.7l4.5,0l0,-4.5l-4.5,0l0,4.5Zm-1.3,1.3l7.1,0l0,-7l-7.1,0l0,7Zm16.2,-1.7l3.7,0l0,-3.7l-3.7,0l0,3.7Zm-1.3,1.3l6.3,0l0,-6.3l-6.3,0l0,6.3Zm16.3,-1.7l2.8,0l0,-2.9l-2.8,0l0,2.9Zm-1.3,1.3l5.4,0l0,-5.5l-5.4,0l0,5.5Zm29.9,-0.9l3.6,0l0,-3.6l-3.6,0l0,3.6Zm1.3,-1.3l1,0l0,-1l-1,0l0,1Zm-509.4,15.7l3.5,0l0,-3.5l-3.5,0l0,3.5Zm-1.3,1.3l6,0l0,-6l-6,0l0,6Zm15.5,-1l4,0l0,-4l-4,0l0,4Zm-1.3,1.3l6.8,0l0,-6.6l-6.7,0l0,6.6l-0.1,0Zm29.5,-0.5l5.7,0l0,-5.7l-5.7,0l0,5.7Zm-1.3,1.3l8.3,0l0,-8.3l-8.3,0l0,8.3Zm29.8,-0.7l6.8,0l0,-6.8l-6.8,0l0,6.8Zm-1.3,1.3l9.4,0l0,-9.4l-9.3,0l0,9.4l-0.1,0Zm15.7,-1.2l7.1,0l0,-7l-7.1,0l0,7Zm-1.3,1.4l9.7,0l0,-9.9l-9.7,0l0,9.9Zm15.6,-1.1l7.6,0l0,-7.6l-7.6,0l0,7.6Zm-1.4,1.3l10.3,0l0,-10.1l-10.3,0l0,10.1Zm15.8,-1.1l7.8,0l0,-8l-7.8,0l0,8Zm-1.3,1.2l10.4,0l0,-10.5l-10.4,0l0,10.5Zm15.6,-1.2l8.2,0l0,-8l-8.2,0l0,8Zm-1.3,1.4l10.8,0l0,-10.8l-10.8,0l0,10.8Zm15.6,-1.1l8.7,0l0,-8.7l-8.7,0l0,8.7Zm-1.3,1.4l11.3,0l0,-11.4l-11.3,0l0,11.4Zm30.1,-1.1l9.2,0l0,-9.2l-9.2,0l0,9.2Zm-1.4,1.3l11.9,0l0,-11.8l-11.9,0l0,11.8Zm15.7,-1.2l9.5,0l0,-9.5l-9.5,0l0,9.5Zm-1.3,1.3l12.3,0l0,-12l-12.2,0l0,12l-0.1,0Zm15.8,-1.2l9.7,0l0,-9.7l-9.7,0l0,9.7Zm-1.3,1.3l12.3,0l0,-12.3l-12.3,0l0,12.3Zm59.1,-1l10.2,0l0,-10.1l-10.2,0l0,10.1Zm-1.3,1.3l12.8,0l0,-12.8l-12.8,0l0,12.8Zm15.7,-1.2l10.4,0l0,-10.4l-10.4,0l0,10.4Zm-1.3,1.3l13,0l0,-13l-13,0l0,13Zm15.8,-1.3l10.4,0l0,-10.4l-10.4,0l0,10.4Zm-1.3,1.3l13,0l0,-13l-13,0l0,13Zm15.8,-1.4l10.3,0l0,-10.3l-10.3,0l0,10.3Zm-1.2,1.3l13,0l0,-12.9l-13,0l0,13l0,-0.1Zm15.9,-1.4l10.1,0l0,-10l-10.1,0l0,10Zm-1.3,1.4l12.7,0l0,-12.8l-12.7,0l0,12.8Zm16,-1.5l9.8,0l0,-9.9l-9.9,0l0,9.8l0.1,0.1Zm-1.3,1.3l12.4,0l0,-12.4l-12.4,0l0,12.4Zm16,-1.5l9.4,0l0,-9.4l-9.4,0l0,9.4Zm-1.3,1.3l12,0l0,-12l-12,0l0,12Zm16.1,-1.6l8.9,0l0,-8.9l-9,0l0,9l0.1,-0.1Zm-1.3,1.3l11.5,0l0,-11.5l-11.5,0l0,11.5Zm16,-1.5l8.5,0l0,-8.4l-8.5,0l0,8.4Zm-1.3,1.3l11,0l0,-11l-11,0l0,11Zm16.2,-1.6l7.8,0l0,-7.9l-7.8,0l0,7.9Zm-1.3,1.3l10.4,0l0,-10.4l-10.4,0l0,10.4Zm31,-2l6.4,0l0,-6.4l-6.4,0l0,6.4Zm-1.3,1.3l9,0l0,-9l-9,0l0,9Zm16.2,-1.7l5.6,0l0,-5.6l-5.6,0l0,5.6Zm-1.3,1.3l8.2,0l0,-8.2l-8.2,0l0,8.2Zm31.2,-2.1l4,0l0,-4l-4,0l0,4Zm-1.3,1.3l6.5,0l0,-6.6l-6.5,0l0,6.6Zm16.3,-1.8l3,0l0,-3l-3,0l0,3Zm-1.3,1.3l5.6,0l0,-5.6l-5.6,0l0,5.6Zm16.3,-1.8l2,0l0,-2l-2,0l0,2Zm-1.3,1.3l4.6,0l0,-4.6l-4.6,0l0,4.6Zm14.9,-0.4l3.8,0l0,-3.9l-3.8,0l0,3.9Zm1.4,-1.3l1,0l0,-1.2l-1,0l0,1.2Zm-495.1,15.9l4,0l0,-4l-4,0l0,4Zm-1.3,1.3l6.5,0l0,-6.6l-6.5,0l0,6.6Zm15.6,-1.1l4.4,0l0,-4.4l-4.4,0l0,4.4Zm-1.4,1.3l7.1,0l0,-7l-7,0l0,7l-0.1,0Zm15.4,-0.8l5.4,0l0,-5.4l-5.4,0l0,5.4Zm-1.3,1.3l8,0l0,-8l-8,0l0,8Zm15.4,-0.9l6.2,0l0,-6.2l-6.2,0l0,6.2Zm-1.3,1.3l8.8,0l0,-8.9l-8.8,0l0,8.9Zm30.1,-1l6.7,0l0,-6.9l-6.7,0l0,6.9Zm-1.3,1.3l9.3,0l0,-9.4l-9.3,0l0,9.4Zm15.5,-1.1l7.3,0l0,-7.1l-7.3,0l0,7.2l0,-0.1Zm-1.3,1.4l10,0l0,-10l-10,0l0,10Zm30.1,-1.1l7.8,0l0,-7.8l-7.8,0l0,7.8Zm-1.3,1.3l10.4,0l0,-10.4l-10.4,0l0,10.4Zm15.5,-1l8.4,0l0,-8.4l-8.4,0l0,8.4Zm-1.3,1.3l11,0l0,-11l-11,0l0,11Zm15.7,-1.1l8.7,0l0,-8.9l-8.7,0l0,8.9Zm-1.3,1.3l11.3,0l0,-11.4l-11.3,0l0,11.4Zm15.7,-1.2l9,0l0,-9l-9,0l0,9Zm-1.3,1.3l11.5,0l0,-11.6l-11.5,0l0,11.6Zm15.7,-1.2l9.2,0l0,-9.1l-9.2,0l0,9.2l0,-0.1Zm-1.3,1.3l11.8,0l0,-11.8l-11.7,0l0,11.8l-0.1,0Zm30.1,-1.1l9.6,0l0,-9.6l-9.6,0l0,9.6Zm-1.3,1.3l12.3,0l0,-12.2l-12.2,0l0,12.2l-0.1,0Zm15.8,-1.2l9.7,0l0,-9.8l-9.7,0l0,9.8Zm-1.3,1.3l12.3,0l0,-12.4l-12.3,0l0,12.4Zm15.8,-1.2l9.8,0l0,-10l-9.8,0l0,10Zm-1.4,1.3l12.5,0l0,-12.6l-12.5,0l0,12.6Zm15.7,-1.3l10.1,0l0,-10l-10,0l0,10l-0.1,0Zm-1.3,1.5l12.7,0l0,-12.7l-12.7,0l0,12.7Zm15.8,-1.4l10.2,0l0,-10.2l-10.2,0l0,10.2Zm-1.3,1.3l12.8,0l0,-12.8l-12.8,0l0,12.8Zm15.8,-1.3l10.2,0l0,-10.2l-10.2,0l0,10.2Zm-1.3,1.3l12.8,0l0,-12.8l-12.8,0l0,12.8Zm15.9,-1.3l10.1,0l0,-10.2l-10,0l0,10.2l-0.1,0Zm-1.3,1.3l12.7,0l0,-12.9l-12.7,0l0,13l0,-0.1Zm15.9,-1.4l10,0l0,-10l-10,0l0,10Zm-1.3,1.3l12.6,0l0,-12.6l-12.6,0l0,12.6Zm16,-1.5l9.6,0l0,-9.6l-9.6,0l0,9.6Zm-1.4,1.3l12.2,0l0,-12.2l-12.2,0l0,12.2Zm16.2,-1.6l9,0l0,-9l-9,0l0,9Zm-1.4,1.4l11.8,0l0,-11.8l-11.8,0l0,11.8Zm16.1,-1.5l8.7,0l0,-8.9l-8.7,0l0,8.9Zm-1.3,1.3l11.3,0l0,-11.4l-11.3,0l0,11.4Zm16,-1.6l8.3,0l0,-8.2l-8.3,0l0,8.2Zm-1.4,1.3l11,0l0,-10.8l-11,0l0,10.8Zm16.3,-1.6l7.6,0l0,-7.6l-7.6,0l0,7.6Zm-1.3,1.3l10.2,0l0,-10.2l-10.2,0l0,10.2Zm16.1,-1.6l7,0l0,-7l-7,0l0,7Zm-1.3,1.3l9.5,0l0,-9.5l-9.5,0l0,9.5Zm61,-2.9l3.7,0l0,-3.7l-3.7,0l0,3.7Zm-1.3,1.3l6.3,0l0,-6.4l-6.3,0l0,6.4Zm16.3,-1.7l2.8,0l0,-3l-2.8,0l0,3Zm-1.3,1.2l5.4,0l0,-5.4l-5.4,0l0,5.4Zm16.2,-1.7l2,0l0,-2l-2,0l0,2Zm-1.3,1.3l4.6,0l0,-4.6l-4.6,0l0,4.6Zm16.5,-2l0.6,0l0,-0.6l-0.6,0l0,0.6Zm-1.2,1.3l3,0l0,-3.2l-3,0l0,3.2Z" style="fill:#c8c8c8;fill-opacity:0.5;"/></svg>